<?xml version="1.0" standalone="no"?>
<!DOCTYPE svg PUBLIC "-//W3C//DTD SVG 20010904//EN"
 "http://www.w3.org/TR/2001/REC-SVG-20010904/DTD/svg10.dtd">
<svg version="1.0" xmlns="http://www.w3.org/2000/svg"
 width="225.000000pt" height="225.000000pt" viewBox="0 0 225.000000 225.000000"
 preserveAspectRatio="xMidYMid meet">
<metadata>
Created by potrace 1.16, written by Peter Selinger 2001-2019
</metadata>
<g transform="translate(0.000000,225.000000) scale(0.100000,-0.100000)"
fill="#000000" stroke="none">
<path d="M985 2240 c-272 -39 -488 -149 -675 -346 -411 -432 -411 -1105 0
-1538 403 -424 1041 -473 1507 -114 122 93 255 259 323 402 74 156 103 289
103 471 0 150 -10 222 -50 350 -57 180 -143 318 -288 460 -157 154 -330 250
-532 295 -101 23 -299 33 -388 20z m199 -564 c73 -30 102 -112 68 -190 -24
-53 -64 -78 -127 -78 -63 0 -103 25 -127 78 -55 125 60 243 186 190z m84 -692
l2 -282 45 5 c24 3 55 3 69 -1 25 -6 26 -10 26 -76 l0 -70 -285 0 -285 0 0 70
c0 66 1 70 26 76 14 4 45 4 70 1 l44 -5 0 209 0 208 -67 3 -68 3 -3 59 c-2 32
-1 65 2 73 5 11 44 13 213 11 l208 -3 3 -281z"/>
</g>
</svg>
